<svg version="1.1" xmlns="http://www.w3.org/2000/svg" xmlns:xlink="http://www.w3.org/1999/xlink" width="48" height="48"><defs><linearGradient x1="10.46949" y1="10.68987" x2="72.2943" y2="72.07399" gradientUnits="userSpaceOnUse" id="color-1"><stop offset="0.57" stop-color="#000000" stop-opacity="0.19"></stop><stop offset="1" stop-color="#000000" stop-opacity="0"></stop></linearGradient><filter id="dropshadow-base"><feColorMatrix type="matrix" values="0 0 0 0 0  0 0 0 0 0  0 0 0 0 0  0 0 0 .8 0"></feColorMatrix> <feOffset dx="0" dy="1"></feOffset> <feGaussianBlur stdDeviation="1"></feGaussianBlur> <feComposite in="SourceGraphic"></feComposite></filter><filter id="dropshadow-banner" x="-10%" y="-10%" width="120%" height="130%"><feColorMatrix type="matrix" values="0 0 0 0 0  0 0 0 0 0  0 0 0 0 0  0 0 0 .4 0"></feColorMatrix> <feOffset dx="0" dy="1"></feOffset> <feGaussianBlur stdDeviation="0.5"></feGaussianBlur> <feComposite in="SourceGraphic"></feComposite></filter></defs><g fill="none" fill-rule="nonzero" stroke="none" stroke-width="none" stroke-linecap="butt" stroke-linejoin="miter" stroke-miterlimit="10" stroke-dasharray="" stroke-dashoffset="0" font-family="none" font-weight="none" font-size="none" text-anchor="none" style="mix-blend-mode: normal"><path d="M2,24c0,-12.15026 9.84974,-22 22,-22c12.15026,0 22,9.84974 22,22c0,12.15026 -9.84974,22 -22,22c-12.15026,0 -22,-9.84974 -22,-22z" id="base 1 5" fill="#d16975" stroke-width="1"></path><path d="M13.53067,33.803c-0.25349,-0.25349 -0.41049,-0.60347 -0.41049,-0.98942c0,-0.41668 0.18301,-0.79143 0.47287,-1.04808l-2.42381,-2.42381c-0.25818,-0.25818 -0.4609,-0.57847 -0.58132,-0.94706c-0.16261,-0.4978 -0.15768,-1.02491 0.01419,-1.52433c0.07302,-0.21212 0.30415,-0.32506 0.51638,-0.25194c0.01288,0.00444 0.02541,0.00946 0.03755,0.01502c0.1635,-0.27828 0.39352,-0.51829 0.67604,-0.69213c-0.00586,-0.01225 -0.01115,-0.02491 -0.01584,-0.03795c-0.076,-0.21109 0.03347,-0.44385 0.24456,-0.5199l0.01268,-0.00465c0.01506,-0.00557 0.03017,-0.01105 0.0455,-0.01614c0.76626,-0.25324 1.59876,-0.10612 2.22835,0.38102l1.02539,-0.32257l0.89837,-0.6401c0.02339,-0.01663 0.0358,-0.04534 0.03326,-0.07676c-0.01652,-0.20346 -0.02492,-0.4093 -0.02492,-0.61177c0,-0.84669 0.13819,-1.67086 0.41164,-2.45893l-2.14143,-2.14143c-0.29431,-0.29431 -0.4835,-0.68435 -0.52879,-1.10187c-0.05519,-0.50885 0.09842,-1.004 0.43253,-1.39411c0.3065,-0.35784 0.72443,-0.57064 1.1626,-0.62595l-2.03507,-2.03507c-0.34594,-0.34594 -0.56019,-0.82356 -0.56019,-1.35028c0,-1.05351 0.85704,-1.9106 1.91055,-1.9106c0.52676,0 1.00439,0.21426 1.35034,0.56021l0,0l4.61083,4.61083l-0.09826,-0.48832l-1.00837,-1.00837c-0.32003,-0.32003 -0.54607,-0.7246 -0.64291,-1.17801c-0.13038,-0.61025 -0.00965,-1.23605 0.3399,-1.76208c0.37316,-0.5615 0.95579,-0.9423 1.64057,-1.07209c0.87971,-0.16687 1.74741,0.12652 2.32533,0.70444l5.3355,5.3355l0.47376,-0.51243c-0.02134,-0.48729 0.15047,-0.96067 0.48604,-1.32359c0.34255,-0.37056 0.8285,-0.5854 1.33328,-0.58951c0.49668,-0.00531 0.96196,0.18666 1.31345,0.53815l13.22523,13.22523c-1.82603,9.65282 -9.95785,17.07577 -19.9504,17.82376z" fill="url(#color-1)" stroke-width="1"></path><path d="M37.27161,24.2631c-0.09469,0.20345 -0.33627,0.29153 -0.53978,0.19685c-0.01082,-0.00504 -0.02132,-0.01049 -0.03148,-0.01634c-0.19061,0.27267 -0.43752,0.50041 -0.72409,0.66221c0.00529,0.01202 0.01004,0.0244 0.01423,0.03713c0.07015,0.21315 -0.04572,0.44277 -0.25887,0.51291c-0.17014,0.05596 -0.34592,0.09333 -0.52256,0.11104c-0.95704,0.09604 -1.85302,-0.36915 -2.35516,-1.20025l-0.72243,0.06381l-0.73587,0.35502c-0.05893,0.02844 -0.09994,0.08667 -0.10958,0.15573c-0.07898,0.56524 -0.2229,1.1216 -0.42776,1.65358c-0.02188,0.05688 -0.0182,0.11857 0.01013,0.16927l0.23839,0.4263l0.55338,0.37127c0.50089,-0.12534 1.0365,-0.03505 1.46979,0.25562c0.41904,0.28113 0.70651,0.72801 0.78868,1.22603c0.08336,0.50506 -0.04258,1.0079 -0.35464,1.41594c-0.56437,0.73809 -1.59264,0.93694 -2.39188,0.4627c-0.42825,-0.25415 -0.72969,-0.66253 -0.84697,-1.13888l-0.66041,-0.44309l-0.4581,-0.05568c-0.06825,-0.00823 -0.13742,0.01555 -0.1898,0.06543c-0.49753,0.47397 -1.05622,0.87773 -1.66062,1.20009c-0.06684,0.03564 -0.11148,0.10676 -0.11641,0.18558l-0.06641,1.06039l0.27945,1.10914c0.64075,0.25952 1.12864,0.81235 1.29943,1.49021c0.14528,0.5764 0.05346,1.17262 -0.25854,1.67877c-0.3119,0.50598 -0.80369,0.85585 -1.38469,0.98526c-0.15481,0.03445 -0.31044,0.05103 -0.46427,0.05103c-0.92421,0.00005 -1.78856,-0.59758 -2.08324,-1.50234c-0.23384,-0.71799 -0.0858,-1.4868 0.38394,-2.06011l-0.28211,-1.11948l-0.50744,-0.8162c-0.06988,-0.11251 -0.19387,-0.17962 -0.33156,-0.17962h-0.00033c-0.49688,0 -0.98975,-0.04821 -1.46968,-0.14317c-0.13298,-0.02633 -0.26618,0.01484 -0.35648,0.11018l-0.67157,0.70868l-0.6934,1.43859c0.16711,0.46238 0.14273,0.96884 -0.07372,1.41795c-0.21933,0.45501 -0.62157,0.80287 -1.10356,0.95438c-0.48881,0.15373 -1.00497,0.09945 -1.45305,-0.15275c-0.80461,-0.45273 -1.14722,-1.43848 -0.79697,-2.29281c0.19966,-0.48702 0.59866,-0.86333 1.08888,-1.03682l0.70001,-1.4524l0.14902,-1.05947c0.00943,-0.06695 -0.01593,-0.13385 -0.06614,-0.17453c-0.6817,-0.55284 -1.2574,-1.21271 -1.71105,-1.96125c-0.03272,-0.05406 -0.09447,-0.08802 -0.16109,-0.08867l-1.05584,-0.01002l-0.92876,0.29218c-0.18899,0.82622 -0.80314,1.50137 -1.62379,1.75969c-0.23753,0.07475 -0.47879,0.11029 -0.71626,0.11029c-1.01402,0.00005 -1.96255,-0.64741 -2.29265,-1.6578c-0.16261,-0.4978 -0.15768,-1.02491 0.01419,-1.52433c0.07302,-0.21212 0.30415,-0.32506 0.51638,-0.25193c0.01289,0.00444 0.02541,0.00945 0.03754,0.01502c0.1635,-0.27829 0.39352,-0.51829 0.67604,-0.69213c-0.00585,-0.01225 -0.01115,-0.02491 -0.01585,-0.03795c-0.076,-0.21109 0.03348,-0.44385 0.24457,-0.5199l0.01268,-0.00466c0.01506,-0.00558 0.03017,-0.01105 0.0455,-0.01614c0.76626,-0.25323 1.59876,-0.10611 2.22835,0.38102l1.02539,-0.32257l0.89837,-0.6401c0.0234,-0.01663 0.0358,-0.04534 0.03326,-0.07676c-0.01652,-0.20345 -0.02492,-0.40929 -0.02492,-0.61177c0,-1.09397 0.2307,-2.15035 0.68576,-3.13983c0.01002,-0.02178 0.00975,-0.04669 -0.00081,-0.06831l-0.23861,-0.48827l-0.53198,-0.40133c-0.50706,0.09745 -1.03682,-0.02243 -1.45337,-0.33665c-0.40285,-0.30394 -0.66513,-0.76604 -0.71956,-1.26785c-0.0552,-0.50885 0.09842,-1.004 0.43253,-1.39411c0.6044,-0.70564 1.64215,-0.84729 2.41388,-0.32945c0.41352,0.27745 0.69183,0.70191 0.78256,1.18405l0.63485,0.47895l0.56183,0.1001c0.57163,-0.50284 1.20967,-0.91311 1.9015,-1.22257l0.15189,-0.92491l-0.19094,-0.94891c-0.80244,-0.29283 -1.39227,-0.94918 -1.56604,-1.76283c-0.13038,-0.61025 -0.00964,-1.23605 0.3399,-1.76208c0.37316,-0.5615 0.95579,-0.9423 1.64058,-1.07209c1.3601,-0.258 2.69149,0.5842 2.96763,1.87713c0.18401,0.86159 -0.13775,1.73618 -0.82638,2.29926l0.17285,0.85894l0.49011,0.78164c1.29862,0.01885 2.5682,0.37229 3.68622,1.02583l0.74957,-0.3477l0.89458,-0.9676c-0.02134,-0.48729 0.15048,-0.96066 0.48605,-1.32359c0.34256,-0.37056 0.8285,-0.58539 1.33328,-0.58951c0.51123,-0.00547 0.98921,0.19809 1.34406,0.56947c0.64655,0.67672 0.67206,1.7611 0.05818,2.46869c-0.33925,0.39104 -0.81235,0.61529 -1.3211,0.63235l-0.89447,0.96744l-0.28341,0.76198c0.42321,0.59882 0.75537,1.25257 0.98807,1.94489c0.02188,0.06511 0.0721,0.1144 0.13434,0.13184l0.80082,0.22447l0.81138,-0.07166c0.38762,-0.84079 1.17398,-1.42483 2.06677,-1.51437c0.65462,-0.06565 1.29623,0.13358 1.80682,0.56102c0.54541,0.45663 0.87698,1.11201 0.93347,1.84544c0.03678,0.47819 -0.04994,0.95909 -0.25063,1.39081zM13.02073,12.98478c0,-1.05351 0.85704,-1.9106 1.91055,-1.9106c1.05351,0 1.91055,0.85704 1.91055,1.91055c0,1.05351 -0.85704,1.91055 -1.91055,1.91055c-1.05351,0 -1.91055,-0.85704 -1.91055,-1.9105zM15.91994,32.81358c0,0.77194 -0.62797,1.39991 -1.39986,1.39991c-0.77194,0 -1.39991,-0.62802 -1.39991,-1.39991c0,-0.77189 0.62802,-1.39986 1.39991,-1.39986c0.77189,0 1.39986,0.62802 1.39986,1.39986zM34.63294,34.44581c0,1.03103 -0.83873,1.86976 -1.86976,1.86976c-1.03103,0 -1.86976,-0.83873 -1.86976,-1.86976c0,-1.03103 0.83879,-1.86976 1.86976,-1.86976c1.03097,0 1.86976,0.83873 1.86976,1.86976z" fill="none" stroke-width="0"></path><g id="Capa_1 2" stroke-width="1"><g><g><g id="XMLID_107_ 1" fill="#eb5569"><g><path d="M37.11691,22.90349c0.09588,1.24044 -0.77677,2.34167 -1.94841,2.45921c-0.89702,0.08992 -1.70845,-0.42305 -2.08329,-1.22419l-1.06331,0.09371l-0.80277,0.3873c-0.18363,0.08829 -0.30713,0.2638 -0.3353,0.4653c-0.07583,0.5433 -0.21342,1.06656 -0.40463,1.56382c-0.065,0.16846 -0.05363,0.35642 0.03467,0.51351l0.28601,0.51134l0.79518,0.53355c0.41926,-0.16034 0.90731,-0.12188 1.30869,0.14734c0.68035,0.45663 0.84339,1.39644 0.33746,2.05783c-0.43551,0.56984 -1.24532,0.72639 -1.86174,0.36022c-0.39272,-0.23292 -0.62997,-0.61968 -0.68793,-1.03298l-0.88131,-0.59097l-0.55468,-0.06771c-0.19067,-0.02329 -0.38026,0.04225 -0.51893,0.17496c-0.46801,0.4458 -0.99669,0.82877 -1.57141,1.13536c-0.19338,0.10292 -0.31742,0.30063 -0.33096,0.51893l-0.07042,1.12344l0.34884,1.38399c0.59368,0.16575 1.08444,0.63647 1.24586,1.27673c0.24375,0.96798 -0.35751,1.95004 -1.33794,2.16833c-0.88456,0.19717 -1.79187,-0.31851 -2.073,-1.18031c-0.21884,-0.67276 -0.01788,-1.36828 0.44472,-1.82274l-0.35047,-1.39211l-0.54114,-0.86993c-0.14517,-0.23346 -0.40192,-0.37159 -0.6771,-0.37105c-0.00163,0 -0.00271,0 -0.00433,0c-0.47397,0 -0.93764,-0.04713 -1.38615,-0.13542c-0.26705,-0.05308 -0.54276,0.03142 -0.73018,0.22913l-0.71501,0.75456l-0.8006,1.66078c0.18742,0.3808 0.20421,0.84068 0.00596,1.2529c-0.35642,0.73885 -1.26536,1.03244 -1.99175,0.62401c-0.62185,-0.35047 -0.89106,-1.12398 -0.62022,-1.78483c0.18471,-0.45068 0.56768,-0.75185 1.00102,-0.8526l0.80547,-1.67162l0.15817,-1.12181c0.02871,-0.20692 -0.05038,-0.41547 -0.21288,-0.54655c-0.6408,-0.52001 -1.19006,-1.14781 -1.61961,-1.85633c-0.10671,-0.17605 -0.29846,-0.28276 -0.5043,-0.28438l-1.12019,-0.01083l-1.22636,0.38567c-0.08613,0.76268 -0.6083,1.44032 -1.38724,1.68516c-1.04652,0.32934 -2.16129,-0.24592 -2.50092,-1.28594c-0.33963,-1.03948 0.234,-2.17646 1.2724,-2.51988c0.72693,-0.2405 1.4907,-0.04063 2.00746,0.45068l1.30165,-0.40951l0.95064,-0.67764c0.14138,-0.10021 0.21667,-0.26813 0.20259,-0.44038c-0.01571,-0.19121 -0.02383,-0.38405 -0.02383,-0.57905c0,-1.05952 0.23292,-2.06542 0.64893,-2.97002c0.06067,-0.13271 0.05904,-0.28546 -0.00488,-0.41655l-0.28167,-0.5758l-0.76431,-0.57689c-0.42792,0.13704 -0.91273,0.0715 -1.2984,-0.21938c-0.65435,-0.49401 -0.76485,-1.4414 -0.22317,-2.07354c0.46638,-0.54439 1.28377,-0.65597 1.87908,-0.25621c0.37917,0.25459 0.59476,0.65326 0.62943,1.06927l0.84718,0.63918l0.85368,0.15221c0.6213,-0.57689 1.34553,-1.04435 2.14125,-1.37207l0.20042,-1.21769l-0.25296,-1.25777c-0.7486,-0.19284 -1.35636,-0.76647 -1.51995,-1.53132c-0.23075,-1.08065 0.51188,-2.13312 1.65916,-2.35034c1.14673,-0.21721 2.26367,0.48209 2.49442,1.56274c0.1728,0.80872 -0.19934,1.6012 -0.8786,2.03996l0.23888,1.18627l0.58664,0.93602c0.03846,0.06121 0.10563,0.09804 0.17767,0.09804h0.00108c1.34336,0 2.60113,0.37376 3.67528,1.02269c0.05904,0.03521 0.13163,0.04008 0.19392,0.01083l0.91868,-0.42576l1.07252,-1.16027c-0.06446,-0.41601 0.05417,-0.85693 0.36238,-1.19006c0.55684,-0.6018 1.5102,-0.61697 2.08546,-0.01517c0.5043,0.52814 0.5238,1.37044 0.04496,1.92187c-0.30984,0.35697 -0.75456,0.52164 -1.18898,0.48913l-1.07252,1.16027l-0.3483,0.9371c-0.02438,0.065 -0.01354,0.13759 0.02708,0.19392c0.42305,0.58068 0.76051,1.22744 0.99344,1.92187c0.06446,0.19067 0.21613,0.33909 0.41005,0.3938l0.8721,0.2443l1.13319,-0.10021c0.27788,-0.80114 0.97177,-1.40728 1.82383,-1.49286c1.17165,-0.11754 2.19921,0.79302 2.29454,2.03346z"></path></g></g><g id="XMLID_8_ 1" fill="#f58a97"><g><path d="M18.53684,24.09247c0,-2.91741 2.36503,-5.28244 5.28244,-5.28244c2.91741,0 5.28244,2.36503 5.28244,5.28244c0,2.91741 -2.36503,5.28244 -5.28244,5.28244c-2.91741,0 -5.28244,-2.36503 -5.28244,-5.28244z"></path></g></g><path d="M20.14692,24.09247c0,-2.64376 1.9424,-4.83414 4.47772,-5.22182c-0.2625,-0.04014 -0.53171,-0.06061 -0.80542,-0.06061c-2.91747,0 -5.28244,2.36496 -5.28244,5.28244c0,2.91747 2.36496,5.28244 5.28244,5.28244c0.27371,0 0.54254,-0.0208 0.80504,-0.06094c-2.53527,-0.38773 -4.47734,-2.57773 -4.47734,-5.2215z" fill="#f07281"></path><g fill="#eb5569"><path d="M13.42698,12.98478c0,-0.8308 0.67349,-1.50429 1.50429,-1.50429c0.8308,0 1.50429,0.67349 1.50429,1.50429c0,0.8308 -0.67349,1.50429 -1.50429,1.50429c-0.8308,0 -1.50429,-0.67349 -1.50429,-1.50429z"></path><path d="M13.52644,32.81363c0,-0.54875 0.44485,-0.9936 0.9936,-0.9936c0.54875,0 0.9936,0.44485 0.9936,0.9936c0,0.54875 -0.44485,0.9936 -0.9936,0.9936c-0.54875,0 -0.9936,-0.44485 -0.9936,-0.9936z"></path><path d="M31.29968,34.44581c0,-0.80827 0.65523,-1.4635 1.4635,-1.4635c0.80827,0 1.4635,0.65523 1.4635,1.4635c0,0.80827 -0.65523,1.4635 -1.4635,1.4635c-0.80827,0 -1.4635,-0.65523 -1.4635,-1.4635z"></path><path d="M20.83339,22.63568c0,-0.75355 0.61088,-1.36443 1.36443,-1.36443c0.75355,0 1.36443,0.61088 1.36443,1.36443c0,0.75355 -0.61088,1.36443 -1.36443,1.36443c-0.75355,0 -1.36443,-0.61088 -1.36443,-1.36443z"></path><path d="M22.36439,26.87371c0,-0.51291 0.4158,-0.92871 0.92871,-0.92871c0.51291,0 0.92871,0.4158 0.92871,0.92871c0,0.51291 -0.4158,0.92871 -0.92871,0.92871c-0.51291,0 -0.92871,-0.4158 -0.92871,-0.92871z"></path><path d="M25.42941,24.09247c0,-0.4307 0.34915,-0.77985 0.77985,-0.77985c0.4307,0 0.77985,0.34915 0.77985,0.77985c0,0.4307 -0.34915,0.77985 -0.77985,0.77985c-0.4307,0 -0.77985,-0.34915 -0.77985,-0.77985z"></path></g></g><g fill="#000000"><path d="M37.52225,22.87229c-0.0565,-0.73343 -0.38806,-1.38881 -0.93347,-1.84544c-0.51058,-0.42744 -1.1522,-0.62667 -1.80682,-0.56102c-0.89279,0.08954 -1.67915,0.67358 -2.06677,1.51437l-0.81138,0.07166l-0.80082,-0.22447c-0.06224,-0.01744 -0.11245,-0.06673 -0.13434,-0.13184c-0.2327,-0.69232 -0.56486,-1.34607 -0.98807,-1.94489l0.28341,-0.76198l0.89447,-0.96744c0.50874,-0.01706 0.98184,-0.24132 1.3211,-0.63235c0.61388,-0.70759 0.58837,-1.79198 -0.05818,-2.46869c-0.35485,-0.37137 -0.83283,-0.57494 -1.34406,-0.56947c-0.50479,0.00412 -0.99073,0.21895 -1.33328,0.58951c-0.33557,0.36292 -0.50739,0.8363 -0.48605,1.32359l-0.89458,0.9676l-0.74957,0.3477c-1.11802,-0.65353 -2.3876,-1.00698 -3.68622,-1.02583l-0.49011,-0.78164l-0.17285,-0.85894c0.68863,-0.56307 1.01039,-1.43767 0.82638,-2.29926c-0.27615,-1.29293 -1.60754,-2.13513 -2.96763,-1.87713c-0.68479,0.12979 -1.26742,0.51058 -1.64058,1.07209c-0.34954,0.52602 -0.47028,1.15182 -0.3399,1.76208c0.17377,0.81365 0.7636,1.47 1.56604,1.76283l0.19094,0.94891l-0.15189,0.92491c-0.69183,0.30946 -1.32987,0.71973 -1.9015,1.22257l-0.56183,-0.1001l-0.63485,-0.47895c-0.09073,-0.48215 -0.36904,-0.90661 -0.78256,-1.18405c-0.77173,-0.51784 -1.80947,-0.37619 -2.41388,0.32945c-0.33411,0.39012 -0.48773,0.88526 -0.43253,1.39411c0.05444,0.50181 0.31672,0.96391 0.71956,1.26785c0.41655,0.31423 0.94631,0.4341 1.45337,0.33665l0.53198,0.40133l0.23861,0.48827c0.01056,0.02161 0.01083,0.04653 0.00081,0.06831c-0.45506,0.98948 -0.68576,2.04586 -0.68576,3.13983c0,0.20248 0.0084,0.40832 0.02492,0.61177c0.00255,0.03142 -0.00986,0.06013 -0.03326,0.07676l-0.89837,0.6401l-1.02539,0.32257c-0.62959,-0.48713 -1.4621,-0.63425 -2.22835,-0.38102c-0.01533,0.00509 -0.03044,0.01056 -0.0455,0.01614l-0.01268,0.00466c-0.21109,0.07605 -0.32056,0.30881 -0.24457,0.5199c0.076,0.21104 0.30865,0.32062 0.5199,0.24457l0.01901,-0.00693c0.00639,-0.00233 0.01278,-0.00477 0.01912,-0.00688c0.55961,-0.18504 1.17279,-0.0474 1.60033,0.35913c0.07665,0.07286 0.17724,0.1118 0.27994,0.1118c0.04073,0 0.08185,-0.00612 0.12188,-0.01874l1.30154,-0.40945c0.04068,-0.01278 0.07908,-0.0319 0.11386,-0.05666l0.95075,-0.67742c0.25491,-0.18157 0.39732,-0.48984 0.37164,-0.8045c-0.01473,-0.18162 -0.02226,-0.36525 -0.02226,-0.54585c0,-0.97594 0.20573,-1.91813 0.6115,-2.80036c0.11229,-0.24424 0.10904,-0.52288 -0.00899,-0.76447l-0.28135,-0.57569c-0.02806,-0.05747 -0.06928,-0.10741 -0.12031,-0.14593l-0.76479,-0.57699c-0.10541,-0.07952 -0.24294,-0.10286 -0.36856,-0.06256c-0.31721,0.10162 -0.66469,0.0429 -0.92963,-0.15698c-0.22788,-0.17187 -0.37029,-0.42294 -0.40111,-0.70689c-0.03077,-0.28362 0.05514,-0.55988 0.24186,-0.7779c0.33096,-0.38638 0.92134,-0.46693 1.34406,-0.1833c0.2606,0.17491 0.42505,0.45409 0.45122,0.76609c0.00964,0.11516 0.06787,0.22079 0.16017,0.29039l0.84707,0.63907c0.05103,0.03851 0.11045,0.06441 0.17339,0.07562l0.85347,0.1521c0.12561,0.02243 0.25421,-0.01549 0.34759,-0.10216c0.5946,-0.55175 1.27419,-0.98715 2.02002,-1.29412c0.13027,-0.05363 0.22344,-0.17084 0.24625,-0.30984l0.19999,-1.21769c0.00796,-0.04843 0.00704,-0.09788 -0.0026,-0.14598l-0.25302,-1.2575c-0.03071,-0.1527 -0.14604,-0.27441 -0.29689,-0.31325c-0.62824,-0.16185 -1.09711,-0.63057 -1.22365,-1.22311c-0.08428,-0.39456 -0.00542,-0.80038 0.22209,-1.14272c0.25107,-0.37782 0.64714,-0.63479 1.11521,-0.72352c0.93022,-0.17615 1.83704,0.38378 2.0217,1.24851c0.13222,0.61925 -0.14327,1.25274 -0.70191,1.61393c-0.14013,0.09062 -0.2106,0.25773 -0.17767,0.42132l0.23872,1.18627c0.0097,0.0481 0.028,0.09404 0.05406,0.13564l0.5868,0.93607c0.11332,0.18076 0.30827,0.28866 0.52256,0.28866h0.00022c1.22278,0 2.42108,0.33324 3.46549,0.96375c0.17507,0.10568 0.38995,0.11765 0.57477,0.03201l0.91852,-0.42608c0.0481,-0.02232 0.09138,-0.05384 0.12735,-0.09274l1.07252,-1.16006c0.08418,-0.091 0.12215,-0.21543 0.10319,-0.33795c-0.04816,-0.31114 0.04642,-0.62174 0.25946,-0.85211c0.19376,-0.20957 0.45777,-0.32625 0.74334,-0.32864c0.28449,-0.00005 0.55164,0.11066 0.74995,0.31829c0.35994,0.37674 0.37397,0.98065 0.0319,1.37489c-0.2145,0.24722 -0.52489,0.37484 -0.85162,0.3503c-0.12356,-0.00937 -0.24473,0.03835 -0.3288,0.12935l-1.07252,1.16006c-0.03602,0.03889 -0.06403,0.0845 -0.0825,0.13417l-0.34868,0.93753c-0.07166,0.19267 -0.04182,0.4074 0.07973,0.57439c0.40415,0.55522 0.7194,1.16493 0.93699,1.81229c0.10763,0.32029 0.36379,0.56529 0.68528,0.65538l0.87226,0.24446c0.04723,0.01327 0.09647,0.01777 0.14539,0.01349l1.13281,-0.10005c0.15936,-0.01408 0.29559,-0.12031 0.34808,-0.27143c0.23455,-0.67563 0.81582,-1.15529 1.48084,-1.22197c0.43491,-0.04366 0.86273,0.08976 1.2042,0.3756c0.3763,0.31504 0.60538,0.77135 0.64492,1.2848c0.02611,0.33931 -0.03521,0.68002 -0.17735,0.98536c-0.09469,0.2034 -0.00661,0.44504 0.19685,0.53978c0.20351,0.09469 0.4451,0.00661 0.53978,-0.19685c0.20069,-0.43172 0.28741,-0.91262 0.25063,-1.39081z"></path><path d="M35.47758,24.88391c-0.11402,0.03754 -0.23168,0.06256 -0.34965,0.07443c-0.70304,0.07036 -1.36015,-0.31894 -1.6747,-0.99208c-0.07231,-0.1547 -0.23379,-0.24782 -0.40382,-0.23265l-1.06342,0.09393c-0.04891,0.00433 -0.09658,0.01744 -0.14078,0.03878l-0.80271,0.38725c-0.3041,0.14669 -0.51394,0.43648 -0.56123,0.77514c-0.07042,0.50392 -0.19874,0.99988 -0.38134,1.47401c-0.10899,0.28303 -0.08743,0.59574 0.05921,0.85785l0.2859,0.51123c0.0312,0.05579 0.07513,0.10346 0.12827,0.13905l0.79562,0.53377c0.10958,0.07356 0.2482,0.08921 0.37148,0.04209c0.31098,-0.11901 0.66123,-0.07968 0.93688,0.10525c0.23698,0.15898 0.39315,0.40176 0.43963,0.68354c0.04642,0.28146 -0.024,0.5621 -0.19842,0.79014c-0.30908,0.4042 -0.89398,0.5173 -1.33182,0.25746c-0.26986,-0.16017 -0.44959,-0.42988 -0.49298,-0.73993c-0.01603,-0.11446 -0.08006,-0.21667 -0.17605,-0.28102l-0.8812,-0.59119c-0.05308,-0.03564 -0.11386,-0.05823 -0.17729,-0.06592l-0.55462,-0.06744c-0.31022,-0.03781 -0.61952,0.06571 -0.84837,0.28384c-0.44418,0.42321 -0.94295,0.7837 -1.48241,1.07138c-0.31374,0.16727 -0.52261,0.49368 -0.54504,0.85173l-0.07036,1.12366c-0.0026,0.04187 0.00125,0.08396 0.01154,0.12464l0.34868,1.38377c0.03559,0.14132 0.14419,0.25275 0.28449,0.29196c0.4731,0.13233 0.84144,0.50977 0.96121,0.98499c0.09116,0.36184 0.03353,0.73614 -0.16239,1.05389c-0.19576,0.31759 -0.50463,0.53724 -0.86966,0.61854c-0.68051,0.15167 -1.38274,-0.24803 -1.59833,-0.9098c-0.16283,-0.49991 -0.03131,-1.03883 0.34315,-1.40652c0.10297,-0.10108 0.14457,-0.24923 0.10931,-0.38914l-0.35084,-1.39222c-0.01024,-0.04068 -0.02676,-0.07957 -0.04891,-0.11521l-0.54086,-0.86999c-0.21922,-0.35269 -0.6011,-0.56313 -1.02577,-0.56313c-0.00027,0 -0.00054,0 -0.00087,0c-0.4393,0 -0.87909,-0.04296 -1.30723,-0.12767c-0.4081,-0.08082 -0.8208,0.04951 -1.10399,0.34835l-0.71512,0.75466c-0.02887,0.0305 -0.05287,0.06522 -0.07112,0.10303l-0.80049,1.66084c-0.05422,0.11251 -0.05368,0.24375 0.00146,0.35577c0.14024,0.28492 0.14187,0.61182 0.00444,0.89696c-0.12404,0.25735 -0.34256,0.44629 -0.61524,0.53204c-0.27246,0.08569 -0.56047,0.0552 -0.81094,-0.08575c-0.44055,-0.24793 -0.63539,-0.80867 -0.44363,-1.27652c0.12789,-0.31195 0.3892,-0.53458 0.71696,-0.61085c0.11976,-0.02784 0.22052,-0.1085 0.27393,-0.21927l0.80569,-1.67151c0.0182,-0.03781 0.0305,-0.07822 0.03629,-0.11976l0.15784,-1.12214c0.04891,-0.34759 -0.08867,-0.69963 -0.35897,-0.91879c-0.60885,-0.49374 -1.1229,-1.08292 -1.52796,-1.75124c-0.17745,-0.29278 -0.50246,-0.47673 -0.84827,-0.47998l-1.12019,-0.01067c-0.04274,-0.00054 -0.0851,0.0059 -0.12578,0.01869l-1.22647,0.38584c-0.15335,0.04826 -0.26385,0.18238 -0.28183,0.34212c-0.07053,0.62677 -0.50441,1.15393 -1.1054,1.34298c-0.82882,0.26076 -1.72291,-0.1989 -1.99272,-1.0248c-0.10725,-0.32831 -0.10379,-0.67672 0.01013,-1.00757c0.07302,-0.21217 -0.03976,-0.44336 -0.25193,-0.51638c-0.21223,-0.07313 -0.44336,0.03981 -0.51638,0.25193c-0.17187,0.49943 -0.1768,1.02653 -0.01419,1.52433c0.3301,1.01039 1.27863,1.65786 2.29265,1.6578c0.23747,0 0.47873,-0.03553 0.71626,-0.11029c0.82064,-0.25833 1.43479,-0.93347 1.62379,-1.75969l0.92876,-0.29218l1.05584,0.01002c0.06663,0.00065 0.12838,0.03461 0.16109,0.08867c0.45365,0.74854 1.02935,1.40841 1.71105,1.96125c0.05021,0.04068 0.07556,0.10758 0.06614,0.17453l-0.14902,1.05947l-0.70001,1.4524c-0.49022,0.1735 -0.88922,0.5498 -1.08888,1.03682c-0.35025,0.85433 -0.00764,1.84008 0.79697,2.29281c0.44808,0.2522 0.96424,0.30648 1.45305,0.15275c0.48198,-0.15151 0.88423,-0.49937 1.10356,-0.95438c0.21645,-0.4491 0.24083,-0.95557 0.07372,-1.41795l0.6934,-1.43859l0.67157,-0.70868c0.0903,-0.09534 0.2235,-0.1365 0.35648,-0.11018c0.47993,0.09496 0.9728,0.14317 1.46968,0.14317h0.00033c0.13769,0 0.26168,0.06711 0.33156,0.17962l0.50744,0.8162l0.28211,1.11948c-0.46974,0.57331 -0.61778,1.34211 -0.38394,2.06011c0.29467,0.90476 1.15903,1.5024 2.08324,1.50234c0.15384,0 0.30946,-0.01658 0.46427,-0.05103c0.581,-0.12941 1.07279,-0.47928 1.38469,-0.98526c0.31201,-0.50614 0.40382,-1.10237 0.25854,-1.67877c-0.17079,-0.67785 -0.65868,-1.23069 -1.29943,-1.49021l-0.27945,-1.10914l0.06641,-1.06039c0.00493,-0.07881 0.04956,-0.14994 0.11641,-0.18558c0.6044,-0.32235 1.16309,-0.72612 1.66062,-1.20009c0.05238,-0.04989 0.12155,-0.07367 0.1898,-0.06543l0.4581,0.05568l0.66041,0.44309c0.11727,0.47635 0.41872,0.88472 0.84697,1.13888c0.79924,0.47424 1.82751,0.27539 2.39188,-0.4627c0.31206,-0.40805 0.438,-0.91088 0.35464,-1.41594c-0.08217,-0.49802 -0.36964,-0.9449 -0.78868,-1.22603c-0.43329,-0.29066 -0.9689,-0.38096 -1.46979,-0.25562l-0.55338,-0.37127l-0.23839,-0.4263c-0.02833,-0.0507 -0.03201,-0.1124 -0.01013,-0.16927c0.20486,-0.53198 0.34879,-1.08834 0.42776,-1.65358c0.00964,-0.06906 0.05065,-0.12729 0.10958,-0.15573l0.73587,-0.35502l0.72243,-0.06381c0.50213,0.8311 1.39812,1.29629 2.35516,1.20025c0.17664,-0.01771 0.35242,-0.05509 0.52256,-0.11104c0.21315,-0.07015 0.32901,-0.29976 0.25887,-0.51291c-0.07015,-0.21331 -0.29982,-0.32912 -0.51291,-0.25903z"></path><path d="M25.1245,18.55468c-0.42592,-0.10005 -0.86506,-0.15075 -1.30523,-0.15075c-3.13664,0 -5.68853,2.55184 -5.68853,5.68853c0,3.13669 2.55184,5.68853 5.68853,5.68853c3.13669,0 5.68853,-2.55184 5.68853,-5.68853c0,-1.9612 -0.99067,-3.75908 -2.64999,-4.8095c-0.18964,-0.12004 -0.44065,-0.06359 -0.56058,0.12594c-0.12004,0.18959 -0.06359,0.44055 0.12599,0.56058c1.42272,0.90059 2.27206,2.44193 2.27206,4.12298c0,2.68861 -2.18735,4.87602 -4.87602,4.87602c-2.68867,0 -4.87602,-2.18735 -4.87602,-4.87602c0,-2.68867 2.18735,-4.87602 4.87602,-4.87602c0.37771,0 0.75434,0.0435 1.11948,0.12924c0.21846,0.05146 0.43708,-0.08418 0.48838,-0.30258c0.0513,-0.21846 -0.08423,-0.43708 -0.30264,-0.48843z"></path><path d="M14.93127,14.89528c1.05351,0 1.91055,-0.85704 1.91055,-1.91055c0,-1.05351 -0.85704,-1.91055 -1.91055,-1.91055c-1.05351,0 -1.91055,0.8571 -1.91055,1.9106c0,1.05345 0.85704,1.9105 1.91055,1.9105zM14.93127,11.88675c0.60543,0 1.09803,0.4926 1.09803,1.09803c0,0.60543 -0.4926,1.09803 -1.09803,1.09803c-0.60543,0 -1.09803,-0.4926 -1.09803,-1.09803c0,-0.60543 0.4926,-1.09803 1.09803,-1.09803z"></path><path d="M14.52009,31.41372c-0.77189,0 -1.39991,0.62797 -1.39991,1.39986c0,0.77189 0.62797,1.39991 1.39991,1.39991c0.77189,0 1.39986,-0.62797 1.39986,-1.39991c0,-0.77184 -0.62797,-1.39986 -1.39986,-1.39986zM14.52009,33.40097c-0.32387,0 -0.58739,-0.26347 -0.58739,-0.58739c0,-0.32387 0.26347,-0.58734 0.58739,-0.58734c0.32387,0 0.58734,0.26347 0.58734,0.58734c0,0.32392 -0.26347,0.58739 -0.58734,0.58739z"></path><path d="M32.76318,32.57605c-1.03097,0 -1.86976,0.83873 -1.86976,1.86976c0,1.03103 0.83873,1.86976 1.86976,1.86976c1.03103,0 1.86976,-0.83873 1.86976,-1.86976c0,-1.03103 -0.83879,-1.86976 -1.86976,-1.86976zM32.76318,35.50301c-0.58295,0 -1.05725,-0.47424 -1.05725,-1.05725c0,-0.58301 0.47424,-1.05725 1.05725,-1.05725c0.58301,0 1.05725,0.47424 1.05725,1.05725c0,0.58301 -0.47429,1.05725 -1.05725,1.05725z"></path><path d="M23.96851,22.63573c0,-0.97637 -0.79432,-1.77069 -1.77069,-1.77069c-0.97637,0 -1.77069,0.79432 -1.77069,1.77069c0,0.97637 0.79432,1.77069 1.77069,1.77069c0.97637,0 1.77069,-0.79437 1.77069,-1.77069zM22.19782,23.59391c-0.52835,0 -0.95817,-0.42982 -0.95817,-0.95817c0,-0.52835 0.42982,-0.95817 0.95817,-0.95817c0.52835,0 0.95817,0.42982 0.95817,0.95817c0,0.52835 -0.42982,0.95817 -0.95817,0.95817z"></path><path d="M23.29315,28.20862c0.73609,0 1.33496,-0.59888 1.33496,-1.33496c0,-0.73609 -0.59888,-1.33496 -1.33496,-1.33496c-0.73609,0 -1.33496,0.59888 -1.33496,1.33496c0,0.73614 0.59882,1.33496 1.33496,1.33496zM23.29315,26.35126c0.28806,0 0.52245,0.23438 0.52245,0.52245c0,0.28806 -0.23438,0.52245 -0.52245,0.52245c-0.28806,0 -0.52245,-0.23438 -0.52245,-0.52245c0,-0.28806 0.23433,-0.52245 0.52245,-0.52245z"></path><path d="M25.02315,24.09247c0,0.65402 0.53209,1.18611 1.18611,1.18611c0.65402,0 1.18611,-0.53209 1.18611,-1.18611c0,-0.65402 -0.53209,-1.18611 -1.18611,-1.18611c-0.65402,0 -1.18611,0.53204 -1.18611,1.18611zM26.20926,23.71882c0.206,0 0.37359,0.16759 0.37359,0.37359c0,0.206 -0.16759,0.37359 -0.37359,0.37359c-0.206,0 -0.37359,-0.16759 -0.37359,-0.37359c0,-0.206 0.16754,-0.37359 0.37359,-0.37359z"></path></g></g></g><path d="M2,24c0,-12.15026 9.84974,-22 22,-22c12.15026,0 22,9.84974 22,22c0,12.15026 -9.84974,22 -22,22c-12.15026,0 -22,-9.84974 -22,-22z" id="base 1 1 1" fill="none" stroke-width="1"></path><g id="Capa_1 1 1" stroke-width="1" font-family="Roboto, sans-serif" font-weight="400" font-size="14" text-anchor="start"><g><g><g id="XMLID_107_ 1 1" fill="#000000"><g></g></g><g id="XMLID_8_ 1 1" fill="#000000"><g></g></g><g fill="#eb5569"></g></g><g fill="#000000"></g></g></g><rect x="2" y="2" width="44" height="22" fill="none" stroke-width="1"></rect><path d="M2,24v-22h44v22z" fill="none" stroke-width="1"></path><path d="M2,24v-22h44v22z" fill="none" stroke-width="1"></path><path d="M2,24v-22h44v22z" fill="none" stroke-width="1"></path><path d="M2,24v-22h44v22z" fill="none" stroke-width="1"></path></g></svg>